<svg width="166" height="168" viewBox="0 0 166 168" fill="none" xmlns="http://www.w3.org/2000/svg">
<g filter="url(#filter0_d_0_364)">
<rect x="64" y="56" width="40" height="40" rx="20" fill="#5167F6" shape-rendering="crispEdges"/>
<path d="M88 73.2633H86.6667C86.3 73.2633 86 73.5633 86 73.93C86 74.2967 86.3 74.5967 86.6667 74.5967H88V81.93H80V74.5967H81.3334C81.7 74.5967 82 74.2967 82 73.93C82 73.5633 81.7 73.2633 81.3334 73.2633H80C79.2667 73.2633 78.6667 73.8633 78.6667 74.5967V81.93C78.6667 82.6633 79.2667 83.2633 80 83.2633H88C88.7334 83.2633 89.3334 82.6633 89.3334 81.93V74.5967C89.3334 73.8633 88.7334 73.2633 88 73.2633Z" fill="white"/>
<path d="M84 78.5967C84.3667 78.5967 84.6667 78.2967 84.6667 77.93V71.2633H85.86C86.16 71.2633 86.3067 70.9033 86.0934 70.6967L84.2334 68.8367C84.1 68.7033 83.8934 68.7033 83.76 68.8367L81.9 70.6967C81.6934 70.9033 81.84 71.2633 82.14 71.2633H83.3334V77.93C83.3334 78.2967 83.6334 78.5967 84 78.5967Z" fill="white"/>
</g>
<defs>
<filter id="filter0_d_0_364" x="0" y="0" width="168" height="168" filterUnits="userSpaceOnUse" color-interpolation-filters="sRGB">
<feFlood flood-opacity="0" result="BackgroundImageFix"/>
<feColorMatrix in="SourceAlpha" type="matrix" values="0 0 0 0 0 0 0 0 0 0 0 0 0 0 0 0 0 0 127 0" result="hardAlpha"/>
<feOffset dy="8"/>
<feGaussianBlur stdDeviation="32"/>
<feComposite in2="hardAlpha" operator="out"/>
<feColorMatrix type="matrix" values="0 0 0 0 0.56 0 0 0 0 0.56 0 0 0 0 0.56 0 0 0 0.16 0"/>
<feBlend mode="normal" in2="BackgroundImageFix" result="effect1_dropShadow_0_364"/>
<feBlend mode="normal" in="SourceGraphic" in2="effect1_dropShadow_0_364" result="shape"/>
</filter>
</defs>
</svg>
