<svg width="30" height="30" viewBox="0 0 30 30" fill="none" xmlns="http://www.w3.org/2000/svg">
<path d="M1.66668 16.3333H4.33334C5.06668 16.3333 5.66668 15.7333 5.66668 15C5.66668 14.2667 5.06668 13.6667 4.33334 13.6667H1.66668C0.933343 13.6667 0.333344 14.2667 0.333344 15C0.333344 15.7333 0.933343 16.3333 1.66668 16.3333ZM25.6667 16.3333H28.3333C29.0667 16.3333 29.6667 15.7333 29.6667 15C29.6667 14.2667 29.0667 13.6667 28.3333 13.6667H25.6667C24.9333 13.6667 24.3333 14.2667 24.3333 15C24.3333 15.7333 24.9333 16.3333 25.6667 16.3333ZM13.6667 1.66667V4.33333C13.6667 5.06667 14.2667 5.66667 15 5.66667C15.7333 5.66667 16.3333 5.06667 16.3333 4.33333V1.66667C16.3333 0.933334 15.7333 0.333334 15 0.333334C14.2667 0.333334 13.6667 0.933334 13.6667 1.66667ZM13.6667 25.6667V28.3333C13.6667 29.0667 14.2667 29.6667 15 29.6667C15.7333 29.6667 16.3333 29.0667 16.3333 28.3333V25.6667C16.3333 24.9333 15.7333 24.3333 15 24.3333C14.2667 24.3333 13.6667 24.9333 13.6667 25.6667ZM6.98668 5.10667C6.46668 4.58667 5.61334 4.58667 5.10668 5.10667C4.58668 5.62667 4.58668 6.48 5.10668 6.98667L6.52001 8.4C7.04001 8.92 7.89334 8.92 8.40001 8.4C8.90668 7.88 8.92001 7.02667 8.40001 6.52L6.98668 5.10667ZM23.48 21.6C22.96 21.08 22.1067 21.08 21.6 21.6C21.08 22.12 21.08 22.9733 21.6 23.48L23.0133 24.8933C23.5333 25.4133 24.3867 25.4133 24.8933 24.8933C25.4133 24.3733 25.4133 23.52 24.8933 23.0133L23.48 21.6ZM24.8933 6.98667C25.4133 6.46667 25.4133 5.61333 24.8933 5.10667C24.3733 4.58667 23.52 4.58667 23.0133 5.10667L21.6 6.52C21.08 7.04 21.08 7.89333 21.6 8.4C22.12 8.90667 22.9733 8.92 23.48 8.4L24.8933 6.98667ZM8.40001 23.48C8.92001 22.96 8.92001 22.1067 8.40001 21.6C7.88001 21.08 7.02668 21.08 6.52001 21.6L5.10668 23.0133C4.58668 23.5333 4.58668 24.3867 5.10668 24.8933C5.62668 25.4 6.48001 25.4133 6.98668 24.8933L8.40001 23.48Z" fill="#5167F6"/>
</svg>
