<svg width="16" height="16" viewBox="0 0 16 16" fill="none" xmlns="http://www.w3.org/2000/svg">
<path d="M1.33335 8.66667H2.66669C3.03335 8.66667 3.33335 8.36667 3.33335 8C3.33335 7.63333 3.03335 7.33333 2.66669 7.33333H1.33335C0.966687 7.33333 0.666687 7.63333 0.666687 8C0.666687 8.36667 0.966687 8.66667 1.33335 8.66667ZM13.3334 8.66667H14.6667C15.0334 8.66667 15.3334 8.36667 15.3334 8C15.3334 7.63333 15.0334 7.33333 14.6667 7.33333H13.3334C12.9667 7.33333 12.6667 7.63333 12.6667 8C12.6667 8.36667 12.9667 8.66667 13.3334 8.66667ZM7.33335 1.33333V2.66667C7.33335 3.03333 7.63335 3.33333 8.00002 3.33333C8.36669 3.33333 8.66669 3.03333 8.66669 2.66667V1.33333C8.66669 0.966668 8.36669 0.666668 8.00002 0.666668C7.63335 0.666668 7.33335 0.966668 7.33335 1.33333ZM7.33335 13.3333V14.6667C7.33335 15.0333 7.63335 15.3333 8.00002 15.3333C8.36669 15.3333 8.66669 15.0333 8.66669 14.6667V13.3333C8.66669 12.9667 8.36669 12.6667 8.00002 12.6667C7.63335 12.6667 7.33335 12.9667 7.33335 13.3333ZM3.99335 3.05333C3.73335 2.79333 3.30669 2.79333 3.05335 3.05333C2.79335 3.31333 2.79335 3.74 3.05335 3.99333L3.76002 4.7C4.02002 4.96 4.44669 4.96 4.70002 4.7C4.95335 4.44 4.96002 4.01333 4.70002 3.76L3.99335 3.05333ZM12.24 11.3C11.98 11.04 11.5534 11.04 11.3 11.3C11.04 11.56 11.04 11.9867 11.3 12.24L12.0067 12.9467C12.2667 13.2067 12.6934 13.2067 12.9467 12.9467C13.2067 12.6867 13.2067 12.26 12.9467 12.0067L12.24 11.3ZM12.9467 3.99333C13.2067 3.73333 13.2067 3.30667 12.9467 3.05333C12.6867 2.79333 12.26 2.79333 12.0067 3.05333L11.3 3.76C11.04 4.02 11.04 4.44667 11.3 4.7C11.56 4.95333 11.9867 4.96 12.24 4.7L12.9467 3.99333ZM4.70002 12.24C4.96002 11.98 4.96002 11.5533 4.70002 11.3C4.44002 11.04 4.01335 11.04 3.76002 11.3L3.05335 12.0067C2.79335 12.2667 2.79335 12.6933 3.05335 12.9467C3.31335 13.2 3.74002 13.2067 3.99335 12.9467L4.70002 12.24Z" fill="#5167F6"/>
</svg>
